<?xml version="1.0" encoding="UTF-8"?>
<svg id="_レイヤー_2" data-name="レイヤー 2" xmlns="http://www.w3.org/2000/svg" viewBox="0 0 434 660.78">
  <defs>
    <style>
      .cls-1 {
        fill: #a8000b;
      }

      .cls-2 {
        fill: #f9282f;
      }

      .cls-3 {
        fill: #41871b;
      }

      .cls-4 {
        fill: #174914;
      }

      .cls-5 {
        fill: #79000b;
      }

      .cls-6 {
        fill: #d50514;
      }

      .cls-7 {
        fill: #2d6b16;
      }
    </style>
  </defs>
  <g id="_レイヤー_1-2" data-name="レイヤー 1">
    <path class="cls-4" d="M112,289l-13,17,83,5-10,30,50-32-17,27,22,21,12,257,13,39-5-103,62-90,65,7-59-13,29-23,55,7-49-11,59-26-27,6,5-22-34,35,8-32-33,47,5-36-32,60-1-45-4,49-51,60-8-175,17-40,27-6,22,29,3-31-194-11Z"/>
    <path class="cls-6" d="M337,217l-16,1-43,18-48,2-56,23-4,6,1,11,19,13,23,7,37,1,18-4,33-35,12-34,14,1,3,4,6-6,1-8Z"/>
    <path class="cls-7" d="M431,396l-43-6-5,16,35-7-63,29,44,11-54-6-27,20,58,14-61,1,2,8,30,16-46-21-17,20,35,12,50-8,45-45-5-5,14-18-5-4,13-27Z"/>
    <path class="cls-3" d="M226.05,327l-11.63,16.11,15.21,288.14,8.95,29.53-12.53-333.78Z"/>
    <path class="cls-2" d="M19,86l-6,11,1,14,31,39,36,22,62,22,55,38-30-35-65-41-54-44,23,2-11-20-1-26-23,5-18,13Z"/>
    <path class="cls-2" d="M397,133l-13-12h-18l-11,36-17,17-126,54-36,31,35-17,65-18,24-16,45-9,54-39-2-27Z"/>
    <path class="cls-2" d="M64,65l4,25,26,44,42,36-19-35,73,36,63-13-142-31-13-34,5-57-24,10-15,19Z"/>
    <path class="cls-3" d="M0,389l50,57,31,15,16,1,46-30-28-15-29,18-30,8,57-28-36-12-45,15,40-18-45-10,30,2-8-20,6,4,16-8L0,389Z"/>
    <path class="cls-2" d="M29,214l-4,10,3,11,24,25,25,14,64,21,29,2,21-4-65-30-37-37-14-9-19-5-27,2Z"/>
    <path class="cls-1" d="M394,92l-19-1,4,26,19,14,5,24-10,30-39,76,43-28,21-22,15-25,1-18-12-17,7-20-1-15-15-16-19-8Z"/>
    <path class="cls-1" d="M183,31l21,8,31-12,37,7,23,18,7,22-2,11,14-8,10,20h14l-1-22-8-15-18-16-21-9,18-7-37-25-34-3-54,31Z"/>
    <path class="cls-6" d="M91,195l7,27,11,21,18,16,17,10,19-19,22-12,11-3-17-13-30-14-32-10-26-3Z"/>
    <path class="cls-1" d="M364,190l-26,15-38,6-28,17-41,10,42-2,38-16,26-4v9l-7,7-16-6-12,34-30,32,33-6,20-10-2-4,16-8,11-15,14-59Z"/>
    <path class="cls-7" d="M386,386l-16,3-8-5-10,5-6-4-22,13-7-4-17,18-4-4-16,19-8,20,4,33,19-17,5-50,1,45,19-18,5-29,8-13-5,36,19-12,14-35-6,32,21-13,10-20Z"/>
    <path class="cls-6" d="M137,164l6,13,41,30,30,14,63-27-3-9-16-12-42,9h-18l-24-6-34-15-3,3Z"/>
    <path class="cls-2" d="M292,34l25,12,15,15,8,17v24l3-3,2-19h3l4,47,22-33,1-20-6-18-16-16-15-7-22-3-24,4Z"/>
    <path class="cls-2" d="M208,13l-17-9-29-4-20,5-20,12-11,13-7,16-2,11,2,31,9-29,20-21,24-9,22,3,29-19Z"/>
    <path class="cls-5" d="M376,93l-24,36-6,29-16,16-13-3,16-48-61,36,34,12,5,6-93,46-39-17,23,27,129-56,25-24,8-32,14-3-2-25Z"/>
    <path class="cls-7" d="M56,373l13,19,30,10-15-26,4-1,22,31,17,7-12-30,3-2,21,37,24,17-11-34-15-8-1-9-7-8-34-8-8,4-13-5-2,5-16,1Z"/>
    <path class="cls-1" d="M121,139l14,25,5-4,46,19,30,2,42-9,17,13,3,8,31-16-18-12-32-6-44,13h-31l-33-21-30-12Z"/>
    <path class="cls-6" d="M45,153l-11,4-11,7-12,13-3,8v8l3,7,10,8,10,4,8-2,5,1,6-4,10-3h7l-13-27-6-21-3-3Z"/>
    <path class="cls-1" d="M127,96l5,25,7,9,115,26,56-30v-13l-6-6-28,27-27,9-31,3-34-13-57-37Z"/>
    <path class="cls-3" d="M157,491l-24,14-9,30-2-3,6-23-33,26,24-26-1-3,8-3-20-7-9,17-7,27,29-1,7,3,21-9,8-23,2-19Z"/>
    <path class="cls-4" d="M204,482l-9-12-27-11-30,2,2,6,31,10-11,6-24-6,17,9-22,13-30,31,25-22v20l8-26,23-13,2,6,6-10,10-4,3,23-5,26,20-21,3-17-4-13,6-2,6,5Z"/>
    <path class="cls-5" d="M48,152l9,29,16,28-2,3h-6l18,8,34,35,23,13-27-19-11-15-11-31-3-26-40-25Z"/>
    <path class="cls-2" d="M135,48l-12,21-1,15,3,6,16,14,37,24,40,16-43-27-19-18-13-24-1-30-7,3Z"/>
    <path class="cls-6" d="M278,65l-10-5,4,10-1,10-3,7-5,4v4l-12,12-20,9-16,5-15,1v2l28,13,7-1,17-9,16-16,9-16,3-14-2-16Z"/>
    <path class="cls-2" d="M187,57l2,3,11-9,21-7,19,5,22-3,14,6,16,19,3,14,4-3-1-18-5-11-17-14-24-9-14-1-25,7-11,6-15,15Z"/>
    <path class="cls-5" d="M398,164l-34,24-1,22-11,37-13,18-14,6-1,3,18-3,12-8-1-7,39-71,6-21Z"/>
    <path class="cls-5" d="M233,67l-12,1-7,4-7,8-4,10v5l23,13,16-7,13-8-1-8-4-8-6-6-11-4Z"/>
    <path class="cls-3" d="M221,310l-20-6-14,15-18,30-1-3,4-10-3,3h-6l-2-5-6-4,5,32,22-12,19-14,2,3v-4l12-12,6-13Z"/>
    <path class="cls-2" d="M311,81l-7,4-9,11-23,21-46,26h12l27-6,18-9,18-18,10-29Z"/>
    <path class="cls-7" d="M170,476l-14-6-16-2-2-5h-2l-7,5h-3v2l-9,7-4,1,2,2-1,4-8,7v4l21,7,25-16-15-7-1-3,20,6h4l10-6Z"/>
    <path class="cls-5" d="M143,45l-1,18,6,21,11,17,14,12-5-7,2-21-3-5v-16l5-9,1-7h-4l-9,5-11,10-1-11,3-4-3,1-5-4Z"/>
    <path class="cls-5" d="M99,71v18l2,3v9l10,25,24,3-6-15-3-15,1-5-6-10-4-3-5,3-5-1v11l-2,1-2-7-2-1,1-5-2-1,1-6-2-4Z"/>
    <path class="cls-3" d="M253,310l2,6,42,23,17,16,2-1,1-22-2-3,2-3-2-5-1,9,2,7-4,7h-4l-9-18-18-23-28,7Z"/>
    <path class="cls-1" d="M347,84l-2,18,3,2v5l-4,7-5-1-4,5-4,25-11,23-1,6h7l11-7,8-11,4-10,1-32-2-4,1-13-2-1v-12Z"/>
    <path class="cls-1" d="M170,86l-1,20,11,13,41,24,8-4-25-11-6-6-8-2,5-4,22-5,3-3-7,1-29-11-14-12Z"/>
    <path class="cls-7" d="M176,482l-11,4-2,2v3l-3,2-2,5v11l-2,2-4,18-4,5v4l2,1,3-3,8-3,3-4,8-5,2-4,3-16-1-22Z"/>
    <path class="cls-6" d="M347,104l-3-3-2,6v-7l-28,26-58,32,14,1,34-16,23-16,11-13,6,1,3-11Z"/>
    <path class="cls-4" d="M37,391l83,25,68,48-8-8,4-3-15-13,13,6-45-26-17-33,10,30-22-10-17-25,10,22-31-9-17-20,11,18-27-2Z"/>
    <path class="cls-1" d="M89,178l3,16,33,5,47,18-8-8-29-17-29-11-17-3Z"/>
    <path class="cls-5" d="M62,70l-1,13,3,16,16,25,3,14,18,15,44,27-7-8-23-14-21-22-31-53-1-13Z"/>
    <path class="cls-7" d="M154,440l-9-8-2,3-25,17-24,12h18l3-2,3,1,11-4,4,3,5-3h5v-3l-4-1,15-15Z"/>
    <path class="cls-1" d="M172,33l-20-1-15,6-10,7-14,18-6,19,5,1,3-3,4,1,3-17,5-10,8-8,8-4,6,6,6-5,17-8v-2Z"/>
    <path class="cls-5" d="M280,57l-4,2,5,11-1,19-6,15-7,10-9,9,15-8,21-20v-12l-3-11-11-15Z"/>
    <path class="cls-5" d="M235,54l-2-2-6,1-3-2h-9l-1-4-7,2-12,7-11,12-3,8,7,8,7,5v-11l3-6,11-11,8-4,18-3Z"/>
    <path class="cls-3" d="M153,309l-10-4h-11l-30,14-17,4-3,3h15l20-3,7-3,11-2,18-9Z"/>
    <path class="cls-2" d="M169,62l-1,16,2,5,8,8,24,13,20,3-15-8-16-11-14-15-6-12-2,1Z"/>
    <path class="cls-4" d="M322,280l1,3,8,6,39-3-7-6-21-8-10,2-10,6Z"/>
    <path class="cls-6" d="M204,40l-10-5-18-1-20,11-6,6-1,10,10-9,9-5,11-4h12l7,2,6-5Z"/>
    <path class="cls-1" d="M188,241l-2-1-1,2-1-1-1,2-1-1-19,11-10,10v10l21,10-6-9,1-13,5-4,3-6,7-5,4-5Z"/>
    <path class="cls-2" d="M267,85l-11,9-23,13-41,13,7,1,16-2,26-8,10-5,11-11-1-2,6-6v-2Z"/>
    <path class="cls-7" d="M298,291l8,8,6,1v-4l3,2,23-1-2-1,2-4,4-1h-11l-5-6-4-2-1-3-9,3-14,8Z"/>
    <path class="cls-7" d="M180,313h-9l-8,3-7-2v15l2,3,4,2,1,4h6l3-4,8-21Z"/>
    <path class="cls-7" d="M170,440l6,5,4,6h3l2,2-4,3,12,13h2l5,5v3l18,21-2-15-2-1-2-5-25-25h-2l-3-4-10-8h-2Z"/>
    <path class="cls-5" d="M239,50l-2,6h3l8,4,10,12,3,17,7-7,3-7-5-15-14-2-4-4-5,1-2-3,2-2h-4Z"/>
    <path class="cls-5" d="M318,89l-6,35h2l12-9,11-12v-4l-2,1-3-2h-8l-6-9Z"/>
    <path class="cls-7" d="M306,303v3l-2,2-7,3,11,25v7h4l3-6-2-7v-15l-2-2-2-7-3-3Z"/>
    <path class="cls-6" d="M233,57l-18,3-8,4-9,10-2,5,1,10,2,2,2-1,6-12,13-13h2l-2-3,2-2,11-3Z"/>
    <path class="cls-7" d="M122,307l-7-1-4-4-6-1-7,7-3,6-7,4-1,4,6-1,17-7,12-7Z"/>
    <path class="cls-2" d="M220,66h16l9,4,4,4,6-3-8-10-9-4-8,1-1,2h-5l-3,2,2,3-3,1Z"/>
    <path class="cls-1" d="M194,46l-14-1-7,4,1,3-2,7,3,7,3,3,6-12,10-11Z"/>
    <path class="cls-1" d="M242,52l1,2,5-1,4,4,10,2,4-1,9,2,1-2h2l-6-6-11-4-12,1-7,3Z"/>
    <path class="cls-6" d="M314,80l-4,5-3,17-2,4,6,7v3l5-18v-12l-2-6Z"/>
    <path class="cls-3" d="M337,296l5,2,2-2,7-1h31l-5-4-6-2h-13l-6,3-9-2-1,2h-3l-2,4Z"/>
    <path class="cls-1" d="M56,113l24,21,1-1-2-9-5-7-8-3-3,1-2-2h-5Z"/>
    <path class="cls-3" d="M120,370l4,4-1,1h6l1,4,7,5,1,9h2l1,2h4l4,5h4l-2-1-1-4-6-8-11-11-5-2-4-4h-4Z"/>
    <path class="cls-7" d="M115,416l-1-1-3,3-9,3-23,12-16,5-7,4,19-4,11-4,14-10,4-1,2-3,7-2,2-2Z"/>
    <path class="cls-3" d="M301,469l15,7-3-4v-3l2-2h6v-2l2-1-1-2-7,1-5-2-9,8Z"/>
    <path class="cls-6" d="M223,77v3l7,3,5,13h2v-11l-2-3-6-4-2,1-4-2Z"/>
    <path class="cls-3" d="M74,366l9,2,4,3h5l-3-3,1-1,12,1,4,4,2-2,4,3,4-2-15-5h-10l-2,2-8-1-2-2-5,1Z"/>
    <path class="cls-1" d="M72,209l-2-3-5-1-11,4-4-1-3,2,24,1,1-2Z"/>
    <path class="cls-1" d="M215,48v2h9l3,2,6-1,3,3-1,1,3-2-1-3-6-3-16,1Z"/>
    <path class="cls-6" d="M253,72l-2,4,4,6,1,7h2l1-9-4-8h-2Z"/>
    <path class="cls-5" d="M160,255l-8,7-7,9,8,3-2-5,2-3-1-3,8-8Z"/>
    <path class="cls-5" d="M195,238h-6l-2,2,2,1-5,6-6,4-3,6-5,4v3l8-11,17-15Z"/>
    <path class="cls-7" d="M374,289l-3-3-3,2-11-1-11,3,6,1,6-3,16,1Z"/>
    <path class="cls-7" d="M178,457l-1,4,8,5-1-4-6-5Z"/>
  </g>
</svg>