<svg xmlns="http://www.w3.org/2000/svg" width="1024" height="1024" viewBox="0 0 1024 1024">
  <desc>Auto-traced rose (simplified vector). Colors are approximated.</desc>
  <path fill="#174914" d="M 398 365 L 385 382 L 468 387 L 458 417 L 508 385 L 491 412 L 513 433 L 525 690 L 512 941 L 557 725 L 538 729 L 533 626 L 595 536 L 660 543 L 601 530 L 630 507 L 685 514 L 636 503 L 695 477 L 668 483 L 673 461 L 639 496 L 647 464 L 614 511 L 619 475 L 587 535 L 586 490 L 582 539 L 531 599 L 523 424 L 540 384 L 567 378 L 589 407 L 592 376 Z"/>
  <path fill="#d50514" d="M 623 293 L 607 294 L 564 312 L 516 314 L 460 337 L 456 343 L 457 354 L 476 367 L 499 374 L 536 375 L 554 371 L 587 336 L 599 302 L 613 303 L 616 307 L 622 301 Z"/>
  <path fill="#2d6b16" d="M 717 472 L 674 466 L 669 482 L 704 475 L 641 504 L 685 515 L 631 509 L 604 529 L 662 543 L 601 544 L 603 552 L 633 568 L 587 547 L 570 567 L 605 579 L 655 571 L 700 526 L 695 521 L 709 503 L 704 499 Z"/>
  <path fill="#41871b" d="M 510 433 L 497 451 L 514 773 L 493 948 L 509 939 L 524 806 Z"/>
  <path fill="#f9282f" d="M 305 162 L 299 173 L 300 187 L 331 226 L 367 248 L 429 270 L 484 308 L 454 273 L 389 232 L 335 188 L 358 190 L 347 170 L 346 144 L 323 149 Z"/>
  <path fill="#f9282f" d="M 683 209 L 670 197 L 652 197 L 641 233 L 624 250 L 498 304 L 462 335 L 497 318 L 562 300 L 586 284 L 631 275 L 685 236 Z"/>
  <path fill="#f9282f" d="M 350 141 L 354 166 L 380 210 L 422 246 L 403 211 L 476 247 L 539 234 L 397 203 L 384 169 L 389 112 L 365 122 Z"/>
  <path fill="#41871b" d="M 286 465 L 336 522 L 367 537 L 383 538 L 429 508 L 401 493 L 372 511 L 342 519 L 399 491 L 363 479 L 318 494 L 358 476 L 313 466 L 343 468 L 335 448 L 341 452 L 357 444 Z"/>
  <path fill="#f9282f" d="M 315 290 L 311 300 L 314 311 L 338 336 L 363 350 L 427 371 L 456 373 L 477 369 L 412 339 L 375 302 L 361 293 L 342 288 Z"/>
  <path fill="#a8000b" d="M 680 168 L 661 167 L 665 193 L 684 207 L 689 231 L 679 261 L 640 337 L 683 309 L 704 287 L 719 262 L 720 244 L 708 227 L 715 207 L 714 192 L 699 176 Z"/>
  <path fill="#a8000b" d="M 469 107 L 490 115 L 521 103 L 558 110 L 581 128 L 588 150 L 586 161 L 600 153 L 610 173 L 624 173 L 623 151 L 615 136 L 597 120 L 576 111 L 594 104 L 557 79 L 523 76 Z"/>
  <path fill="#d50514" d="M 377 271 L 384 298 L 395 319 L 413 335 L 430 345 L 449 326 L 471 314 L 482 311 L 465 298 L 435 284 L 403 274 Z"/>
  <path fill="#a8000b" d="M 650 266 L 624 281 L 586 287 L 558 304 L 517 314 L 559 312 L 597 296 L 623 292 L 623 301 L 616 308 L 600 302 L 588 336 L 558 368 L 591 362 L 611 352 L 609 348 L 625 340 L 636 325 Z"/>
  <path fill="#2d6b16" d="M 672 462 L 656 465 L 648 460 L 638 465 L 632 461 L 610 474 L 603 470 L 586 488 L 582 484 L 566 503 L 558 523 L 562 556 L 581 539 L 586 489 L 587 534 L 606 516 L 611 487 L 619 474 L 614 510 L 633 498 L 647 463 L 641 495 L 662 482 Z"/>
  <path fill="#d50514" d="M 423 240 L 429 253 L 470 283 L 500 297 L 563 270 L 560 261 L 544 249 L 502 258 L 484 258 L 460 252 L 426 237 Z"/>
  <path fill="#f9282f" d="M 578 110 L 603 122 L 618 137 L 626 154 L 626 178 L 629 175 L 631 156 L 634 156 L 638 203 L 660 170 L 661 150 L 655 132 L 639 116 L 624 109 L 602 106 Z"/>
  <path fill="#f9282f" d="M 494 89 L 477 80 L 448 76 L 428 81 L 408 93 L 397 106 L 390 122 L 388 133 L 390 164 L 399 135 L 419 114 L 443 105 L 465 108 Z"/>
  <path fill="#79000b" d="M 662 169 L 638 205 L 632 234 L 616 250 L 603 247 L 619 199 L 558 235 L 592 247 L 597 253 L 504 299 L 465 282 L 488 309 L 617 253 L 642 229 L 650 197 L 664 194 Z"/>
  <path fill="#2d6b16" d="M 342 449 L 355 468 L 385 478 L 370 452 L 374 451 L 396 482 L 413 489 L 401 459 L 404 457 L 425 494 L 449 511 L 438 477 L 423 469 L 422 460 L 415 452 L 381 444 L 373 448 L 360 443 L 358 448 Z"/>
  <path fill="#a8000b" d="M 407 215 L 421 240 L 426 236 L 472 255 L 502 257 L 544 248 L 561 261 L 564 269 L 595 253 L 577 241 L 545 235 L 501 248 L 470 248 L 437 227 Z"/>
  <path fill="#d50514" d="M 331 229 L 320 233 L 309 240 L 297 253 L 294 261 L 294 269 L 297 276 L 307 284 L 317 288 L 325 286 L 330 287 L 336 283 L 346 280 L 353 280 L 340 253 L 334 232 Z"/>
  <path fill="#a8000b" d="M 413 172 L 418 197 L 425 206 L 540 232 L 596 202 L 596 189 L 590 183 L 562 210 L 535 219 L 504 222 L 470 209 Z"/>
  <path fill="#41871b" d="M 443 567 L 419 581 L 410 611 L 408 608 L 414 585 L 381 611 L 405 585 L 404 582 L 412 579 L 392 572 L 383 589 L 376 616 L 405 615 L 412 618 L 433 609 L 441 586 Z"/>
  <path fill="#174914" d="M 490 558 L 481 546 L 454 535 L 424 537 L 426 543 L 457 553 L 446 559 L 422 553 L 439 562 L 417 575 L 387 606 L 412 584 L 412 604 L 420 578 L 443 565 L 445 571 L 451 561 L 461 557 L 464 580 L 459 606 L 479 585 L 482 568 L 478 555 L 484 553 Z"/>
  <path fill="#79000b" d="M 334 228 L 343 257 L 359 285 L 357 288 L 351 288 L 369 296 L 403 331 L 426 344 L 399 325 L 388 310 L 377 279 L 374 253 Z"/>
  <path fill="#f9282f" d="M 421 124 L 409 145 L 408 160 L 411 166 L 427 180 L 464 204 L 504 220 L 461 193 L 442 175 L 429 151 L 428 121 Z"/>
  <path fill="#d50514" d="M 564 141 L 554 136 L 558 146 L 557 156 L 554 163 L 549 167 L 549 171 L 537 183 L 517 192 L 501 197 L 486 198 L 486 200 L 514 213 L 521 212 L 538 203 L 554 187 L 563 171 L 566 157 Z"/>
  <path fill="#f9282f" d="M 473 133 L 475 136 L 486 127 L 507 120 L 526 125 L 548 122 L 562 128 L 578 147 L 581 161 L 585 158 L 584 140 L 579 129 L 562 115 L 538 106 L 524 105 L 499 112 L 488 118 Z"/>
  <path fill="#79000b" d="M 684 240 L 650 264 L 649 286 L 638 323 L 625 341 L 611 347 L 610 350 L 628 347 L 640 339 L 639 332 L 678 261 Z"/>
  <path fill="#79000b" d="M 519 143 L 507 144 L 500 148 L 493 156 L 489 166 L 489 171 L 512 184 L 528 177 L 541 169 L 540 161 L 536 153 L 530 147 Z"/>
  <path fill="#41871b" d="M 507 386 L 487 380 L 473 395 L 455 425 L 454 422 L 458 412 L 455 415 L 449 415 L 447 410 L 441 406 L 446 438 L 468 426 L 487 412 L 489 415 L 489 411 L 501 399 Z"/>
  <path fill="#f9282f" d="M 597 157 L 590 161 L 581 172 L 558 193 L 512 219 L 524 219 L 551 213 L 569 204 L 587 186 Z"/>
  <path fill="#2d6b16" d="M 456 552 L 442 546 L 426 544 L 424 539 L 422 539 L 415 544 L 412 544 L 412 546 L 403 553 L 399 554 L 401 556 L 400 560 L 392 567 L 392 571 L 413 578 L 438 562 L 423 555 L 422 552 L 442 558 L 446 558 Z"/>
  <path fill="#79000b" d="M 429 121 L 428 139 L 434 160 L 445 177 L 459 189 L 454 182 L 456 161 L 453 156 L 453 140 L 458 131 L 459 124 L 455 124 L 446 129 L 435 139 L 434 128 L 437 124 L 434 125 Z"/>
  <path fill="#79000b" d="M 385 147 L 385 165 L 387 168 L 387 177 L 397 202 L 421 205 L 415 190 L 412 175 L 413 170 L 407 160 L 403 157 L 398 160 L 393 159 L 393 170 L 391 171 L 389 164 L 387 163 L 388 158 L 386 157 L 387 151 Z"/>
  <path fill="#41871b" d="M 539 386 L 541 392 L 583 415 L 600 431 L 602 430 L 603 408 L 601 405 L 603 402 L 601 397 L 600 406 L 602 413 L 598 420 L 594 420 L 585 402 L 567 379 Z"/>
  <path fill="#a8000b" d="M 633 160 L 631 178 L 634 180 L 634 185 L 630 192 L 625 191 L 621 196 L 617 221 L 606 244 L 605 250 L 612 250 L 623 243 L 631 232 L 635 222 L 636 190 L 634 186 L 635 173 L 633 172 Z"/>
  <path fill="#a8000b" d="M 456 162 L 455 182 L 466 195 L 507 219 L 515 215 L 490 204 L 484 198 L 476 196 L 481 192 L 503 187 L 506 184 L 499 185 L 470 174 Z"/>
  <path fill="#2d6b16" d="M 462 558 L 451 562 L 449 564 L 449 567 L 446 569 L 444 574 L 444 585 L 442 587 L 438 605 L 434 610 L 434 614 L 436 615 L 439 612 L 447 609 L 450 605 L 458 600 L 460 596 L 463 580 Z"/>
  <path fill="#d50514" d="M 633 180 L 630 177 L 628 183 L 628 176 L 600 202 L 542 234 L 556 235 L 590 219 L 613 203 L 624 190 L 630 191 Z"/>
  <path fill="#174914" d="M 323 467 L 406 492 L 474 540 L 466 532 L 470 529 L 455 516 L 468 522 L 423 496 L 406 463 L 416 493 L 394 483 L 377 458 L 387 480 L 356 471 L 339 451 L 350 469 Z"/>
  <path fill="#a8000b" d="M 375 254 L 378 270 L 411 275 L 458 293 L 450 285 L 421 268 L 392 257 Z"/>
  <path fill="#79000b" d="M 348 146 L 347 159 L 350 175 L 366 200 L 369 214 L 387 229 L 431 256 L 424 248 L 401 234 L 380 212 L 349 159 Z"/>
  <path fill="#2d6b16" d="M 440 516 L 431 508 L 429 511 L 404 528 L 380 540 L 398 540 L 401 538 L 404 539 L 415 535 L 419 538 L 424 535 L 429 535 L 429 532 L 425 531 Z"/>
  <path fill="#a8000b" d="M 458 109 L 438 108 L 423 114 L 413 121 L 399 139 L 393 158 L 398 159 L 401 156 L 405 157 L 408 140 L 413 130 L 421 122 L 429 118 L 435 124 L 441 119 L 458 111 Z"/>
  <path fill="#79000b" d="M 566 133 L 562 135 L 567 146 L 566 165 L 560 180 L 553 190 L 544 199 L 559 191 L 580 171 L 580 159 L 577 148 Z"/>
  <path fill="#79000b" d="M 521 130 L 519 128 L 513 129 L 510 127 L 501 127 L 500 123 L 493 125 L 481 132 L 470 144 L 467 152 L 474 160 L 481 165 L 481 154 L 484 148 L 495 137 L 503 133 Z"/>
  <path fill="#41871b" d="M 439 385 L 429 381 L 418 381 L 388 395 L 371 399 L 368 402 L 383 402 L 403 399 L 410 396 L 421 394 Z"/>
  <path fill="#f9282f" d="M 455 138 L 454 154 L 456 159 L 464 167 L 488 180 L 508 183 L 493 175 L 477 164 L 463 149 L 457 137 Z"/>
  <path fill="#174914" d="M 608 356 L 609 359 L 617 365 L 656 362 L 649 356 L 628 348 L 618 350 Z"/>
  <path fill="#d50514" d="M 490 116 L 480 111 L 462 110 L 442 121 L 436 127 L 435 137 L 445 128 L 454 123 L 465 119 L 477 119 L 484 121 Z"/>
  <path fill="#a8000b" d="M 474 317 L 472 316 L 471 318 L 470 317 L 469 319 L 468 318 L 449 329 L 439 339 L 439 349 L 460 359 L 454 350 L 455 337 L 460 333 L 463 327 L 470 322 Z"/>
  <path fill="#f9282f" d="M 553 161 L 542 170 L 519 183 L 478 196 L 485 197 L 501 195 L 527 187 L 537 182 L 548 171 L 547 169 L 553 163 Z"/>
  <path fill="#2d6b16" d="M 584 367 L 592 375 L 598 376 L 598 372 L 601 374 L 624 373 L 622 372 L 624 368 L 628 367 L 617 367 L 612 361 L 608 359 L 607 356 L 598 359 Z"/>
  <path fill="#2d6b16" d="M 466 389 L 457 389 L 449 392 L 442 390 L 442 405 L 444 408 L 448 410 L 449 414 L 455 414 L 458 410 Z"/>
  <path fill="#2d6b16" d="M 456 516 L 462 521 L 466 527 L 469 527 L 471 529 L 467 532 L 479 545 L 481 545 L 486 550 L 486 553 L 504 574 L 502 559 L 500 558 L 498 553 L 473 528 L 471 528 L 468 524 L 458 516 Z"/>
  <path fill="#79000b" d="M 525 126 L 523 132 L 526 132 L 534 136 L 544 148 L 547 165 L 554 158 L 557 151 L 552 136 L 538 134 L 534 130 L 529 131 L 527 128 L 529 126 Z"/>
  <path fill="#79000b" d="M 604 165 L 598 200 L 600 200 L 612 191 L 623 179 L 623 175 L 621 176 L 618 174 L 610 174 Z"/>
  <path fill="#2d6b16" d="M 592 379 L 592 382 L 590 384 L 583 387 L 594 412 L 594 419 L 598 419 L 601 413 L 599 406 L 599 391 L 597 389 L 595 382 Z"/>
  <path fill="#d50514" d="M 519 133 L 501 136 L 493 140 L 484 150 L 482 155 L 483 165 L 485 167 L 487 166 L 493 154 L 506 141 L 508 141 L 506 138 L 508 136 Z"/>
  <path fill="#2d6b16" d="M 408 383 L 401 382 L 397 378 L 391 377 L 384 384 L 381 390 L 374 394 L 373 398 L 379 397 L 396 390 Z"/>
  <path fill="#2d6b16" d="M 493 679 L 493 681 L 495 682 L 495 688 L 503 696 L 503 699 L 511 710 L 511 684 Z"/>
  <path fill="#f9282f" d="M 506 142 L 522 142 L 531 146 L 535 150 L 541 147 L 533 137 L 524 133 L 516 134 L 515 136 L 510 136 L 507 138 L 509 141 Z"/>
  <path fill="#a8000b" d="M 480 122 L 466 121 L 459 125 L 460 128 L 458 135 L 461 142 L 464 145 L 470 133 Z"/>
  <path fill="#a8000b" d="M 528 128 L 529 130 L 534 129 L 538 133 L 548 135 L 552 134 L 561 136 L 562 134 L 564 134 L 558 128 L 547 124 L 535 125 Z"/>
  <path fill="#d50514" d="M 600 156 L 596 161 L 593 178 L 591 182 L 597 189 L 597 192 L 602 174 L 602 162 Z"/>
  <path fill="#41871b" d="M 623 372 L 628 374 L 630 372 L 637 371 L 668 371 L 663 367 L 657 365 L 644 365 L 638 368 L 629 366 L 628 368 L 625 368 Z"/>
  <path fill="#a8000b" d="M 342 189 L 366 210 L 367 209 L 365 200 L 360 193 L 352 190 L 349 191 L 347 189 Z"/>
  <path fill="#41871b" d="M 406 446 L 410 450 L 409 451 L 415 451 L 416 455 L 423 460 L 424 469 L 426 469 L 427 471 L 431 471 L 435 476 L 439 476 L 437 475 L 436 471 L 430 463 L 419 452 L 414 450 L 410 446 Z"/>
  <path fill="#2d6b16" d="M 401 492 L 400 491 L 397 494 L 388 497 L 365 509 L 349 514 L 342 518 L 361 514 L 372 510 L 386 500 L 390 499 L 392 496 L 399 494 Z"/>
  <path fill="#41871b" d="M 587 545 L 602 552 L 599 548 L 599 545 L 601 543 L 607 543 L 607 541 L 609 540 L 608 538 L 601 539 L 596 537 Z"/>
  <path fill="#d50514" d="M 509 153 L 509 156 L 516 159 L 521 172 L 523 172 L 523 161 L 521 158 L 515 154 L 513 155 Z"/>
  <path fill="#41871b" d="M 360 442 L 369 444 L 373 447 L 378 447 L 375 444 L 376 443 L 388 444 L 392 448 L 394 446 L 398 449 L 402 447 L 387 442 L 377 442 L 375 444 L 367 443 L 365 441 Z"/>
  <path fill="#a8000b" d="M 358 285 L 356 282 L 351 281 L 340 285 L 336 284 L 333 286 L 357 287 Z"/>
  <path fill="#a8000b" d="M 501 124 L 501 126 L 510 126 L 513 128 L 519 127 L 522 130 L 521 131 L 524 129 L 523 126 L 517 123 Z"/>
  <path fill="#d50514" d="M 539 148 L 537 152 L 541 158 L 542 165 L 544 165 L 545 156 L 541 148 Z"/>
  <path fill="#79000b" d="M 446 331 L 438 338 L 431 347 L 439 350 L 437 345 L 439 342 L 438 339 Z"/>
  <path fill="#79000b" d="M 481 314 L 475 314 L 473 316 L 475 317 L 470 323 L 464 327 L 461 333 L 456 337 L 456 340 L 464 329 Z"/>
  <path fill="#2d6b16" d="M 660 365 L 657 362 L 654 364 L 643 363 L 632 366 L 638 367 L 644 364 Z"/>
  <path fill="#2d6b16" d="M 464 533 L 463 537 L 471 542 L 470 538 Z"/>
  <path fill="#2d6b16" d="M 537 473 L 531 473 L 529 476 L 531 476 L 532 478 Z"/>
</svg>