<svg xmlns="http://www.w3.org/2000/svg" viewBox="0 0 256 256" role="img" aria-label="Rose flower">
  <defs>
    <style>
      :root {
        --rose: #d21f4b;
        --rose-dark: #9e1235;
        --rose-light: #ff5a7d;
        --leaf: #1f7a4a;
        --leaf-dark: #165b38;
        --stem: #1c6b42;
        --highlight: rgba(255,255,255,0.45);
      }
      .petal { fill: var(--rose); }
      .petalDark { fill: var(--rose-dark); }
      .petalLight { fill: var(--rose-light); }
      .leaf { fill: var(--leaf); }
      .leafDark { fill: var(--leaf-dark); }
      .stem { fill: var(--stem); }
    </style>

    <radialGradient id="gPetal" cx="45%" cy="35%" r="70%">
      <stop offset="0%" stop-color="var(--rose-light)"/>
      <stop offset="55%" stop-color="var(--rose)"/>
      <stop offset="100%" stop-color="var(--rose-dark)"/>
    </radialGradient>

    <linearGradient id="gStem" x1="0" y1="0" x2="0" y2="1">
      <stop offset="0%" stop-color="#2a9a63"/>
      <stop offset="100%" stop-color="var(--stem)"/>
    </linearGradient>

    <filter id="softShadow" x="-30%" y="-30%" width="160%" height="160%">
      <feGaussianBlur in="SourceAlpha" stdDeviation="3" result="b"/>
      <feOffset dy="2" result="o"/>
      <feColorMatrix in="o" type="matrix"
        values="0 0 0 0 0
                0 0 0 0 0
                0 0 0 0 0
                0 0 0 .28 0" result="s"/>
      <feMerge>
        <feMergeNode in="s"/>
        <feMergeNode in="SourceGraphic"/>
      </feMerge>
    </filter>
  </defs>

  <!-- Rose head -->
  <g filter="url(#softShadow)" transform="translate(0,4)">
    <!-- Outer petals -->
    <path class="petalDark" d="M64,118c-10-18,1-40,22-52c20-11,42-7,56,7c-12,1-26,6-36,14c-15,12-24,28-26,44z"/>
    <path class="petalDark" d="M192,118c10-18-1-40-22-52c-20-11-42-7-56,7c12,1,26,6,36,14c15,12,24,28,26,44z"/>

    <path fill="url(#gPetal)" d="M58,138c-12-10-18-26-13-40c6-18,29-29,52-25c-13,8-22,19-25,31c-3,14,2,26,11,34c-9,3-18,3-25,0z"/>
    <path fill="url(#gPetal)" d="M198,138c12-10,18-26,13-40c-6-18-29-29-52-25c13,8,22,19,25,31c3,14-2,26-11,34c9,3,18,3,25,0z"/>

    <!-- Main bloom -->
    <path fill="url(#gPetal)" d="M128,52c38,0,70,28,70,66c0,30-20,56-48,64c-8,3-16,4-22,4c-6,0-14-1-22-4c-28-8-48-34-48-64c0-38,32-66,70-66z"/>

    <!-- Inner swirl petals -->
    <path class="petalDark" d="M128,78c18,0,34,12,34,30c0,16-13,28-30,28c-14,0-26-9-26-23c0-12,10-21,22-21c9,0,16,6,16,14c0,6-5,11-12,11c-5,0-9-3-9-7c0-3,3-5,6-5c2,0,4,1,4,3c0,1-1,2-3,2" opacity="0.95"/>

    <path class="petal" d="M132,86c14,2,24,12,24,24c0,14-12,24-26,24c-11,0-20-7-20-17c0-9,8-16,17-16c7,0,12,4,12,10c0,5-4,9-9,9c-4,0-7-2-7-5c0-2,2-4,5-4c2,0,3,1,3,2" opacity="0.92"/>

    <path class="petalLight" d="M108,110c1-10,10-18,22-18c8,0,15,4,18,10c-6-5-13-7-20-6c-9,1-15,7-16,14c-1,8,4,14,11,16c-8,1-15-2-19-7c-3-3-4-6-4-9z" opacity="0.9"/>

    <!-- Highlights -->
    <path d="M92,110c8-22,28-38,52-40c-26,5-41,21-49,41c-1,2-4,2-6,0c-1-1-1-1,3-1z" fill="var(--highlight)" opacity="0.55"/>
    <circle cx="150" cy="92" r="4" fill="var(--highlight)" opacity="0.35"/>
  </g>

  <!-- Calyx (sepals) -->
  <g transform="translate(0,4)">
    <path class="leafDark" d="M100,176c-10-4-18-12-22-22c10,4,18,4,26,0c-2,9-2,16-4,22z"/>
    <path class="leafDark" d="M156,176c10-4,18-12,22-22c-10,4-18,4-26,0c2,9,2,16,4,22z"/>
    <path class="leaf" d="M128,184c-16,0-30-10-34-26c10,6,20,8,34,8c14,0,24-2,34-8c-4,16-18,26-34,26z"/>
  </g>

  <!-- Stem -->
  <path fill="url(#gStem)" d="M123,184c0,0-4,18-6,30c-2,14-2,22-2,22h26s0-8-2-22c-2-12-6-30-6-30h-10z"/>

  <!-- Leaves -->
  <g>
    <path class="leaf" d="M72,210c20-22,46-18,62-6c-22,2-36,10-44,24c-7,12-16,18-28,18c2-10,4-22,10-36z"/>
    <path class="leafDark" d="M78,230c12-16,30-22,52-22c-18,6-32,14-38,26c-3,6-8,10-14,12c-3-5-3-10,0-16z"/>

    <path class="leaf" d="M184,210c-20-22-46-18-62-6c22,2,36,10,44,24c7,12,16,18,28,18c-2-10-4-22-10-36z"/>
    <path class="leafDark" d="M178,230c-12-16-30-22-52-22c18,6,32,14,38,26c3,6,8,10,14,12c3-5,3-10,0-16z"/>
  </g>
</svg>